<mxfile host="app.diagrams.net" modified="2022-06-27T19:27:06.877Z" agent="5.0 (Macintosh; Intel Mac OS X 10_15_7) AppleWebKit/537.36 (KHTML, like Gecko) Chrome/102.0.0.0 Safari/537.36" etag="PLsgHPtDBGFnYpNF2KBE" version="18.0.6" type="github">
  <diagram id="MrY4nTr7E3bEZPA-8TqD" name="Page-1">
    <mxGraphModel dx="2156" dy="1447" grid="1" gridSize="10" guides="1" tooltips="1" connect="1" arrows="1" fold="1" page="1" pageScale="1" pageWidth="850" pageHeight="1100" math="0" shadow="0">
      <root>
        <mxCell id="0" />
        <mxCell id="1" parent="0" />
        <mxCell id="UNj2JUYuKpYhm3q00Vne-83" value="" style="rounded=1;whiteSpace=wrap;html=1;" parent="1" vertex="1">
          <mxGeometry x="40" y="451" width="180" height="289" as="geometry" />
        </mxCell>
        <mxCell id="UNj2JUYuKpYhm3q00Vne-84" value="" style="rounded=1;whiteSpace=wrap;html=1;" parent="1" vertex="1">
          <mxGeometry x="58" y="585.5" width="132" height="124.5" as="geometry" />
        </mxCell>
        <mxCell id="UNj2JUYuKpYhm3q00Vne-2" value="Actor" style="shape=umlActor;verticalLabelPosition=bottom;verticalAlign=top;html=1;outlineConnect=0;" parent="1" vertex="1">
          <mxGeometry x="60" y="230" width="30" height="60" as="geometry" />
        </mxCell>
        <mxCell id="UNj2JUYuKpYhm3q00Vne-3" value="" style="shape=image;html=1;verticalAlign=top;verticalLabelPosition=bottom;labelBackgroundColor=#ffffff;imageAspect=0;aspect=fixed;image=https://cdn4.iconfinder.com/data/icons/internet-networking-and-communication-glyph-24/24/Display_screen_lcd_led_monitor_tv-128.png" parent="1" vertex="1">
          <mxGeometry x="110" y="218" width="84" height="84" as="geometry" />
        </mxCell>
        <mxCell id="UNj2JUYuKpYhm3q00Vne-4" value="" style="image;html=1;image=img/lib/clip_art/computers/Server_Rack_128x128.png" parent="1" vertex="1">
          <mxGeometry x="360" y="210" width="80" height="80" as="geometry" />
        </mxCell>
        <mxCell id="UNj2JUYuKpYhm3q00Vne-5" value="" style="sketch=0;aspect=fixed;pointerEvents=1;shadow=0;dashed=0;html=1;strokeColor=none;labelPosition=center;verticalLabelPosition=bottom;verticalAlign=top;align=center;fillColor=#00188D;shape=mxgraph.mscae.enterprise.key_permissions" parent="1" vertex="1">
          <mxGeometry x="387" y="120" width="26" height="50" as="geometry" />
        </mxCell>
        <mxCell id="UNj2JUYuKpYhm3q00Vne-6" value="" style="verticalLabelPosition=bottom;shadow=0;dashed=0;align=center;html=1;verticalAlign=top;strokeWidth=1;shape=mxgraph.mockup.containers.userMale;strokeColor=#666666;strokeColor2=#008cff;" parent="1" vertex="1">
          <mxGeometry x="490" y="40" width="100" height="100" as="geometry" />
        </mxCell>
        <mxCell id="UNj2JUYuKpYhm3q00Vne-7" value="" style="image;html=1;image=img/lib/clip_art/computers/Database_128x128.png" parent="1" vertex="1">
          <mxGeometry x="650" y="50" width="80" height="80" as="geometry" />
        </mxCell>
        <mxCell id="UNj2JUYuKpYhm3q00Vne-8" value="" style="outlineConnect=0;dashed=0;verticalLabelPosition=bottom;verticalAlign=top;align=center;html=1;shape=mxgraph.aws3.classic_load_balancer;fillColor=#F58534;gradientColor=none;" parent="1" vertex="1">
          <mxGeometry x="840" y="68" width="69" height="72" as="geometry" />
        </mxCell>
        <mxCell id="UNj2JUYuKpYhm3q00Vne-10" value="" style="verticalLabelPosition=bottom;shadow=0;dashed=0;align=center;html=1;verticalAlign=top;strokeWidth=1;shape=mxgraph.mockup.containers.userFemale;strokeColor=#666666;strokeColor2=#008cff;" parent="1" vertex="1">
          <mxGeometry x="990" y="54" width="100" height="100" as="geometry" />
        </mxCell>
        <mxCell id="UNj2JUYuKpYhm3q00Vne-12" value="" style="sketch=0;aspect=fixed;pointerEvents=1;shadow=0;dashed=0;html=1;strokeColor=none;labelPosition=center;verticalLabelPosition=bottom;verticalAlign=top;align=center;fillColor=#00188D;shape=mxgraph.mscae.enterprise.cluster_server" parent="1" vertex="1">
          <mxGeometry x="660" y="218" width="40" height="50" as="geometry" />
        </mxCell>
        <mxCell id="UNj2JUYuKpYhm3q00Vne-13" value="" style="outlineConnect=0;dashed=0;verticalLabelPosition=bottom;verticalAlign=top;align=center;html=1;shape=mxgraph.aws3.vpc_nat_gateway;fillColor=#F58536;gradientColor=none;" parent="1" vertex="1">
          <mxGeometry x="880" y="218" width="69" height="72" as="geometry" />
        </mxCell>
        <mxCell id="UNj2JUYuKpYhm3q00Vne-14" value="" style="sketch=0;aspect=fixed;pointerEvents=1;shadow=0;dashed=0;html=1;strokeColor=none;labelPosition=center;verticalLabelPosition=bottom;verticalAlign=top;align=center;fillColor=#00188D;shape=mxgraph.mscae.enterprise.application_server" parent="1" vertex="1">
          <mxGeometry x="1200" y="225" width="43" height="50" as="geometry" />
        </mxCell>
        <mxCell id="UNj2JUYuKpYhm3q00Vne-15" value="" style="shape=image;html=1;verticalAlign=top;verticalLabelPosition=bottom;labelBackgroundColor=#ffffff;imageAspect=0;aspect=fixed;image=https://cdn0.iconfinder.com/data/icons/google-material-design-3-0/48/ic_translate_48px-128.png" parent="1" vertex="1">
          <mxGeometry x="100" y="340" width="88" height="88" as="geometry" />
        </mxCell>
        <mxCell id="UNj2JUYuKpYhm3q00Vne-16" value="Cloud" style="ellipse;shape=cloud;whiteSpace=wrap;html=1;align=center;" parent="1" vertex="1">
          <mxGeometry x="10" y="340" width="100" height="60" as="geometry" />
        </mxCell>
        <mxCell id="UNj2JUYuKpYhm3q00Vne-17" value="" style="verticalLabelPosition=bottom;sketch=0;aspect=fixed;html=1;verticalAlign=top;strokeColor=none;align=center;outlineConnect=0;shape=mxgraph.citrix.proxy_server;" parent="1" vertex="1">
          <mxGeometry x="360" y="439" width="76.5" height="90" as="geometry" />
        </mxCell>
        <mxCell id="UNj2JUYuKpYhm3q00Vne-18" value="" style="shape=datastore;whiteSpace=wrap;html=1;" parent="1" vertex="1">
          <mxGeometry x="880" y="430" width="60" height="60" as="geometry" />
        </mxCell>
        <mxCell id="UNj2JUYuKpYhm3q00Vne-19" value="" style="sketch=0;aspect=fixed;html=1;points=[];align=center;image;fontSize=12;image=img/lib/mscae/Data_Factory.svg;" parent="1" vertex="1">
          <mxGeometry x="1200" y="630" width="50" height="50" as="geometry" />
        </mxCell>
        <mxCell id="UNj2JUYuKpYhm3q00Vne-20" value="" style="sketch=0;aspect=fixed;pointerEvents=1;shadow=0;dashed=0;html=1;strokeColor=none;labelPosition=center;verticalLabelPosition=bottom;verticalAlign=top;align=center;fillColor=#00188D;shape=mxgraph.mscae.enterprise.cluster_server" parent="1" vertex="1">
          <mxGeometry x="670" y="620" width="40" height="50" as="geometry" />
        </mxCell>
        <mxCell id="UNj2JUYuKpYhm3q00Vne-21" value="" style="shape=image;html=1;verticalAlign=top;verticalLabelPosition=bottom;labelBackgroundColor=#ffffff;imageAspect=0;aspect=fixed;image=https://cdn0.iconfinder.com/data/icons/call-center-and-service/32/47-chat-128.png" parent="1" vertex="1">
          <mxGeometry x="100" y="460" width="60" height="60" as="geometry" />
        </mxCell>
        <mxCell id="UNj2JUYuKpYhm3q00Vne-22" value="" style="aspect=fixed;perimeter=ellipsePerimeter;html=1;align=center;shadow=0;dashed=0;spacingTop=3;image;image=img/lib/active_directory/firewall.svg;" parent="1" vertex="1">
          <mxGeometry x="260" y="810" width="42.7" height="70" as="geometry" />
        </mxCell>
        <mxCell id="UNj2JUYuKpYhm3q00Vne-23" value="" style="aspect=fixed;perimeter=ellipsePerimeter;html=1;align=center;shadow=0;dashed=0;spacingTop=3;image;image=img/lib/active_directory/firewall.svg;" parent="1" vertex="1">
          <mxGeometry x="440" y="805" width="42.7" height="70" as="geometry" />
        </mxCell>
        <mxCell id="UNj2JUYuKpYhm3q00Vne-24" value="" style="aspect=fixed;perimeter=ellipsePerimeter;html=1;align=center;shadow=0;dashed=0;spacingTop=3;image;image=img/lib/active_directory/firewall.svg;" parent="1" vertex="1">
          <mxGeometry x="1100" y="810" width="42.7" height="70" as="geometry" />
        </mxCell>
        <mxCell id="UNj2JUYuKpYhm3q00Vne-26" value="Public Internet" style="text;html=1;strokeColor=none;fillColor=none;align=center;verticalAlign=middle;whiteSpace=wrap;rounded=0;" parent="1" vertex="1">
          <mxGeometry x="60" width="130" height="30" as="geometry" />
        </mxCell>
        <mxCell id="UNj2JUYuKpYhm3q00Vne-27" value="Web Layer / DMZ" style="text;html=1;strokeColor=none;fillColor=none;align=center;verticalAlign=middle;whiteSpace=wrap;rounded=0;" parent="1" vertex="1">
          <mxGeometry x="295" width="130" height="30" as="geometry" />
        </mxCell>
        <mxCell id="UNj2JUYuKpYhm3q00Vne-28" value="Application Layer" style="text;html=1;strokeColor=none;fillColor=none;align=center;verticalAlign=middle;whiteSpace=wrap;rounded=0;" parent="1" vertex="1">
          <mxGeometry x="720" width="130" height="30" as="geometry" />
        </mxCell>
        <mxCell id="UNj2JUYuKpYhm3q00Vne-29" value="Internal Network data access" style="text;html=1;strokeColor=none;fillColor=none;align=center;verticalAlign=middle;whiteSpace=wrap;rounded=0;" parent="1" vertex="1">
          <mxGeometry x="1130" width="210" height="30" as="geometry" />
        </mxCell>
        <mxCell id="UNj2JUYuKpYhm3q00Vne-30" value="Manual movement of data" style="text;html=1;strokeColor=none;fillColor=none;align=center;verticalAlign=middle;whiteSpace=wrap;rounded=0;" parent="1" vertex="1">
          <mxGeometry x="30" y="90" width="120" height="30" as="geometry" />
        </mxCell>
        <mxCell id="UNj2JUYuKpYhm3q00Vne-31" value="Security Component" style="text;html=1;strokeColor=none;fillColor=none;align=center;verticalAlign=middle;whiteSpace=wrap;rounded=0;" parent="1" vertex="1">
          <mxGeometry x="270" y="130" width="90" height="30" as="geometry" />
        </mxCell>
        <mxCell id="UNj2JUYuKpYhm3q00Vne-32" value="Admin User" style="text;html=1;strokeColor=none;fillColor=none;align=center;verticalAlign=middle;whiteSpace=wrap;rounded=0;" parent="1" vertex="1">
          <mxGeometry x="495" y="154" width="90" height="30" as="geometry" />
        </mxCell>
        <mxCell id="UNj2JUYuKpYhm3q00Vne-33" value="Database Cluster with redundancy for HA/BCP" style="text;html=1;strokeColor=none;fillColor=none;align=center;verticalAlign=middle;whiteSpace=wrap;rounded=0;" parent="1" vertex="1">
          <mxGeometry x="595" y="150" width="170" height="30" as="geometry" />
        </mxCell>
        <mxCell id="UNj2JUYuKpYhm3q00Vne-34" value="Load Balancer" style="text;html=1;strokeColor=none;fillColor=none;align=center;verticalAlign=middle;whiteSpace=wrap;rounded=0;" parent="1" vertex="1">
          <mxGeometry x="819" y="164" width="90" height="30" as="geometry" />
        </mxCell>
        <mxCell id="UNj2JUYuKpYhm3q00Vne-35" value="Browser&lt;span style=&quot;color: rgba(0, 0, 0, 0); font-family: monospace; font-size: 0px; text-align: start;&quot;&gt;%3CmxGraphModel%3E%3Croot%3E%3CmxCell%20id%3D%220%22%2F%3E%3CmxCell%20id%3D%221%22%20parent%3D%220%22%2F%3E%3CmxCell%20id%3D%222%22%20value%3D%22Security%20Component%22%20style%3D%22text%3Bhtml%3D1%3BstrokeColor%3Dnone%3BfillColor%3Dnone%3Balign%3Dcenter%3BverticalAlign%3Dmiddle%3BwhiteSpace%3Dwrap%3Brounded%3D0%3B%22%20vertex%3D%221%22%20parent%3D%221%22%3E%3CmxGeometry%20x%3D%22290%22%20y%3D%22134%22%20width%3D%2290%22%20height%3D%2230%22%20as%3D%22geometry%22%2F%3E%3C%2FmxCell%3E%3C%2Froot%3E%3C%2FmxGraphModel%3E&lt;/span&gt;" style="text;html=1;strokeColor=none;fillColor=none;align=center;verticalAlign=middle;whiteSpace=wrap;rounded=0;" parent="1" vertex="1">
          <mxGeometry x="890" y="150" width="90" height="30" as="geometry" />
        </mxCell>
        <mxCell id="UNj2JUYuKpYhm3q00Vne-36" value="Medical Call Center Agent" style="text;html=1;strokeColor=none;fillColor=none;align=center;verticalAlign=middle;whiteSpace=wrap;rounded=0;" parent="1" vertex="1">
          <mxGeometry x="990" y="164" width="90" height="30" as="geometry" />
        </mxCell>
        <mxCell id="UNj2JUYuKpYhm3q00Vne-37" value="Browser" style="text;html=1;strokeColor=none;fillColor=none;align=center;verticalAlign=middle;whiteSpace=wrap;rounded=0;" parent="1" vertex="1">
          <mxGeometry x="110" y="290" width="90" height="30" as="geometry" />
        </mxCell>
        <mxCell id="UNj2JUYuKpYhm3q00Vne-39" value="Reverse Proxy" style="text;html=1;strokeColor=none;fillColor=none;align=center;verticalAlign=middle;whiteSpace=wrap;rounded=0;" parent="1" vertex="1">
          <mxGeometry x="355" y="290" width="90" height="30" as="geometry" />
        </mxCell>
        <mxCell id="UNj2JUYuKpYhm3q00Vne-40" value="Load Balancer&lt;span style=&quot;color: rgba(0, 0, 0, 0); font-family: monospace; font-size: 0px; text-align: start;&quot;&gt;%3CmxGraphModel%3E%3Croot%3E%3CmxCell%20id%3D%220%22%2F%3E%3CmxCell%20id%3D%221%22%20parent%3D%220%22%2F%3E%3CmxCell%20id%3D%222%22%20value%3D%22Security%20Component%22%20style%3D%22text%3Bhtml%3D1%3BstrokeColor%3Dnone%3BfillColor%3Dnone%3Balign%3Dcenter%3BverticalAlign%3Dmiddle%3BwhiteSpace%3Dwrap%3Brounded%3D0%3B%22%20vertex%3D%221%22%20parent%3D%221%22%3E%3CmxGeometry%20x%3D%22290%22%20y%3D%22134%22%20width%3D%2290%22%20height%3D%2230%22%20as%3D%22geometry%22%2F%3E%3C%2FmxCell%3E%3C%2Froot%3E%3C%2FmxGraphModel%3E&lt;/span&gt;" style="text;html=1;strokeColor=none;fillColor=none;align=center;verticalAlign=middle;whiteSpace=wrap;rounded=0;" parent="1" vertex="1">
          <mxGeometry x="482.7" y="290" width="90" height="30" as="geometry" />
        </mxCell>
        <mxCell id="UNj2JUYuKpYhm3q00Vne-41" value="Afiyah Server Cluster Active-active configuration for HA" style="text;html=1;strokeColor=none;fillColor=none;align=center;verticalAlign=middle;whiteSpace=wrap;rounded=0;" parent="1" vertex="1">
          <mxGeometry x="625" y="268" width="130" height="62" as="geometry" />
        </mxCell>
        <mxCell id="UNj2JUYuKpYhm3q00Vne-42" value="SOA gateway for Enterprise Applications" style="text;html=1;strokeColor=none;fillColor=none;align=center;verticalAlign=middle;whiteSpace=wrap;rounded=0;" parent="1" vertex="1">
          <mxGeometry x="845" y="278" width="130" height="62" as="geometry" />
        </mxCell>
        <mxCell id="UNj2JUYuKpYhm3q00Vne-43" value="Enterprise Application" style="text;html=1;strokeColor=none;fillColor=none;align=center;verticalAlign=middle;whiteSpace=wrap;rounded=0;" parent="1" vertex="1">
          <mxGeometry x="1170" y="273" width="110" height="62" as="geometry" />
        </mxCell>
        <mxCell id="UNj2JUYuKpYhm3q00Vne-44" value="NoSQL or SQL Database Cluster for Chat Store with redundancy for HA/BCP" style="text;html=1;strokeColor=none;fillColor=none;align=center;verticalAlign=middle;whiteSpace=wrap;rounded=0;" parent="1" vertex="1">
          <mxGeometry x="850" y="493" width="130" height="80" as="geometry" />
        </mxCell>
        <mxCell id="UNj2JUYuKpYhm3q00Vne-45" value="(optional) Application Server Cluster for loading knowledge corpus and load custom API" style="text;html=1;strokeColor=none;fillColor=none;align=center;verticalAlign=middle;whiteSpace=wrap;rounded=0;" parent="1" vertex="1">
          <mxGeometry x="625" y="688" width="130" height="62" as="geometry" />
        </mxCell>
        <mxCell id="UNj2JUYuKpYhm3q00Vne-46" value="proxy-server-urt-port" style="text;html=1;strokeColor=none;fillColor=none;align=center;verticalAlign=middle;whiteSpace=wrap;rounded=0;" parent="1" vertex="1">
          <mxGeometry x="475" y="444" width="130" height="62" as="geometry" />
        </mxCell>
        <mxCell id="UNj2JUYuKpYhm3q00Vne-86" style="edgeStyle=orthogonalEdgeStyle;rounded=0;orthogonalLoop=1;jettySize=auto;html=1;exitX=1;exitY=0.5;exitDx=0;exitDy=0;entryX=1;entryY=0.25;entryDx=0;entryDy=0;" parent="1" source="UNj2JUYuKpYhm3q00Vne-50" target="UNj2JUYuKpYhm3q00Vne-48" edge="1">
          <mxGeometry relative="1" as="geometry">
            <Array as="points">
              <mxPoint x="250" y="659" />
              <mxPoint x="250" y="413" />
            </Array>
          </mxGeometry>
        </mxCell>
        <mxCell id="UNj2JUYuKpYhm3q00Vne-47" value="Afiyah Chat Service" style="text;html=1;strokeColor=none;fillColor=none;align=center;verticalAlign=middle;whiteSpace=wrap;rounded=0;" parent="1" vertex="1">
          <mxGeometry x="70" y="502" width="130" height="62" as="geometry" />
        </mxCell>
        <mxCell id="UNj2JUYuKpYhm3q00Vne-48" value="Afiyah Translation" style="text;html=1;strokeColor=none;fillColor=none;align=center;verticalAlign=middle;whiteSpace=wrap;rounded=0;" parent="1" vertex="1">
          <mxGeometry x="70" y="398" width="130" height="62" as="geometry" />
        </mxCell>
        <mxCell id="UNj2JUYuKpYhm3q00Vne-49" value="Tone Analyzer" style="text;html=1;strokeColor=none;fillColor=none;align=center;verticalAlign=middle;whiteSpace=wrap;rounded=0;" parent="1" vertex="1">
          <mxGeometry x="58" y="573" width="130" height="62" as="geometry" />
        </mxCell>
        <mxCell id="UNj2JUYuKpYhm3q00Vne-50" value="&lt;br&gt;Sentiment Analaser&lt;br&gt;&lt;br&gt;NLU&lt;br&gt;&lt;br&gt;Discovery" style="text;html=1;strokeColor=none;fillColor=none;align=center;verticalAlign=middle;whiteSpace=wrap;rounded=0;" parent="1" vertex="1">
          <mxGeometry x="50" y="573" width="150" height="172" as="geometry" />
        </mxCell>
        <mxCell id="UNj2JUYuKpYhm3q00Vne-51" value="Cloud Hosted Services" style="text;html=1;strokeColor=none;fillColor=none;align=center;verticalAlign=middle;whiteSpace=wrap;rounded=0;" parent="1" vertex="1">
          <mxGeometry x="75" y="760" width="115" height="30" as="geometry" />
        </mxCell>
        <mxCell id="UNj2JUYuKpYhm3q00Vne-52" value="Firewall-A" style="text;html=1;strokeColor=none;fillColor=none;align=center;verticalAlign=middle;whiteSpace=wrap;rounded=0;" parent="1" vertex="1">
          <mxGeometry x="251.35" y="870" width="60" height="30" as="geometry" />
        </mxCell>
        <mxCell id="UNj2JUYuKpYhm3q00Vne-53" value="Firewall-B" style="text;html=1;strokeColor=none;fillColor=none;align=center;verticalAlign=middle;whiteSpace=wrap;rounded=0;" parent="1" vertex="1">
          <mxGeometry x="435" y="870" width="60" height="30" as="geometry" />
        </mxCell>
        <mxCell id="UNj2JUYuKpYhm3q00Vne-54" value="Firewall-C" style="text;html=1;strokeColor=none;fillColor=none;align=center;verticalAlign=middle;whiteSpace=wrap;rounded=0;" parent="1" vertex="1">
          <mxGeometry x="1090" y="860" width="60" height="50" as="geometry" />
        </mxCell>
        <mxCell id="UNj2JUYuKpYhm3q00Vne-55" value="Enterprise Data" style="text;html=1;strokeColor=none;fillColor=none;align=center;verticalAlign=middle;whiteSpace=wrap;rounded=0;" parent="1" vertex="1">
          <mxGeometry x="1179" y="680" width="85" height="62" as="geometry" />
        </mxCell>
        <mxCell id="UNj2JUYuKpYhm3q00Vne-56" value="" style="verticalLabelPosition=bottom;html=1;verticalAlign=top;align=center;shape=mxgraph.floorplan.wall;fillColor=#000000;direction=south;" parent="1" vertex="1">
          <mxGeometry x="280" y="20" width="10" height="100" as="geometry" />
        </mxCell>
        <mxCell id="UNj2JUYuKpYhm3q00Vne-57" value="" style="verticalLabelPosition=bottom;html=1;verticalAlign=top;align=center;shape=mxgraph.floorplan.wall;fillColor=#000000;direction=south;" parent="1" vertex="1">
          <mxGeometry x="276.35" y="168" width="10" height="652" as="geometry" />
        </mxCell>
        <mxCell id="UNj2JUYuKpYhm3q00Vne-58" value="" style="verticalLabelPosition=bottom;html=1;verticalAlign=top;align=center;shape=mxgraph.floorplan.wall;fillColor=#000000;direction=south;" parent="1" vertex="1">
          <mxGeometry x="460" y="10" width="10" height="810" as="geometry" />
        </mxCell>
        <mxCell id="UNj2JUYuKpYhm3q00Vne-59" value="" style="verticalLabelPosition=bottom;html=1;verticalAlign=top;align=center;shape=mxgraph.floorplan.wall;fillColor=#000000;direction=south;" parent="1" vertex="1">
          <mxGeometry x="1116.35" y="10" width="10" height="810" as="geometry" />
        </mxCell>
        <mxCell id="UNj2JUYuKpYhm3q00Vne-60" value="" style="endArrow=none;dashed=1;html=1;dashPattern=1 3;strokeWidth=2;rounded=0;exitX=1;exitY=0.5;exitDx=0;exitDy=0;entryX=0.359;entryY=0.277;entryDx=0;entryDy=0;entryPerimeter=0;" parent="1" source="UNj2JUYuKpYhm3q00Vne-4" edge="1">
          <mxGeometry width="50" height="50" relative="1" as="geometry">
            <mxPoint x="810" y="390" as="sourcePoint" />
            <mxPoint x="500.087" y="249.577" as="targetPoint" />
          </mxGeometry>
        </mxCell>
        <mxCell id="UNj2JUYuKpYhm3q00Vne-61" value="" style="endArrow=none;dashed=1;html=1;dashPattern=1 3;strokeWidth=2;rounded=0;exitX=0.517;exitY=0.3;exitDx=0;exitDy=0;exitPerimeter=0;entryX=0;entryY=0.5;entryDx=0;entryDy=0;" parent="1" target="UNj2JUYuKpYhm3q00Vne-18" edge="1">
          <mxGeometry width="50" height="50" relative="1" as="geometry">
            <mxPoint x="720.181" y="270.29999999999995" as="sourcePoint" />
            <mxPoint x="860" y="340" as="targetPoint" />
          </mxGeometry>
        </mxCell>
        <mxCell id="UNj2JUYuKpYhm3q00Vne-63" value="" style="endArrow=none;dashed=1;html=1;dashPattern=1 3;strokeWidth=2;rounded=0;exitX=1;exitY=0.5;exitDx=0;exitDy=0;entryX=-0.035;entryY=0.688;entryDx=0;entryDy=0;entryPerimeter=0;" parent="1" source="UNj2JUYuKpYhm3q00Vne-30" target="UNj2JUYuKpYhm3q00Vne-6" edge="1">
          <mxGeometry width="50" height="50" relative="1" as="geometry">
            <mxPoint x="200" y="120" as="sourcePoint" />
            <mxPoint x="250" y="70" as="targetPoint" />
            <Array as="points">
              <mxPoint x="487" y="105" />
            </Array>
          </mxGeometry>
        </mxCell>
        <mxCell id="UNj2JUYuKpYhm3q00Vne-64" value="" style="endArrow=none;html=1;rounded=0;exitX=0.996;exitY=0.658;exitDx=0;exitDy=0;exitPerimeter=0;entryX=0.125;entryY=0.697;entryDx=0;entryDy=0;entryPerimeter=0;" parent="1" source="UNj2JUYuKpYhm3q00Vne-6" target="UNj2JUYuKpYhm3q00Vne-7" edge="1">
          <mxGeometry width="50" height="50" relative="1" as="geometry">
            <mxPoint x="610" y="100" as="sourcePoint" />
            <mxPoint x="660" y="50" as="targetPoint" />
          </mxGeometry>
        </mxCell>
        <mxCell id="UNj2JUYuKpYhm3q00Vne-65" value="" style="endArrow=none;html=1;rounded=0;exitX=1;exitY=0.5;exitDx=0;exitDy=0;entryX=0;entryY=0.5;entryDx=0;entryDy=0;" parent="1" source="UNj2JUYuKpYhm3q00Vne-3" target="UNj2JUYuKpYhm3q00Vne-4" edge="1">
          <mxGeometry width="50" height="50" relative="1" as="geometry">
            <mxPoint x="810" y="390" as="sourcePoint" />
            <mxPoint x="860" y="340" as="targetPoint" />
          </mxGeometry>
        </mxCell>
        <mxCell id="UNj2JUYuKpYhm3q00Vne-70" value="" style="endArrow=none;html=1;rounded=0;exitX=0.122;exitY=0.544;exitDx=0;exitDy=0;exitPerimeter=0;" parent="1" target="UNj2JUYuKpYhm3q00Vne-17" edge="1">
          <mxGeometry width="50" height="50" relative="1" as="geometry">
            <mxPoint x="169.9459999999999" y="490.14400000000023" as="sourcePoint" />
            <mxPoint x="270" y="490" as="targetPoint" />
          </mxGeometry>
        </mxCell>
        <mxCell id="UNj2JUYuKpYhm3q00Vne-71" value="" style="endArrow=none;html=1;rounded=0;entryX=0.495;entryY=0.544;entryDx=0;entryDy=0;entryPerimeter=0;" parent="1" source="UNj2JUYuKpYhm3q00Vne-17" edge="1">
          <mxGeometry width="50" height="50" relative="1" as="geometry">
            <mxPoint x="510" y="560" as="sourcePoint" />
            <mxPoint x="689.5349999999999" y="490.14400000000023" as="targetPoint" />
          </mxGeometry>
        </mxCell>
        <mxCell id="UNj2JUYuKpYhm3q00Vne-72" value="Proxy Server" style="text;html=1;strokeColor=none;fillColor=none;align=center;verticalAlign=middle;whiteSpace=wrap;rounded=0;" parent="1" vertex="1">
          <mxGeometry x="330" y="511" width="130" height="62" as="geometry" />
        </mxCell>
        <mxCell id="UNj2JUYuKpYhm3q00Vne-73" value="" style="endArrow=none;html=1;rounded=0;exitX=0.5;exitY=0.323;exitDx=0;exitDy=0;exitPerimeter=0;entryX=0.5;entryY=0;entryDx=0;entryDy=0;entryPerimeter=0;" parent="1" source="UNj2JUYuKpYhm3q00Vne-41" target="UNj2JUYuKpYhm3q00Vne-20" edge="1">
          <mxGeometry width="50" height="50" relative="1" as="geometry">
            <mxPoint x="689.5349999999999" y="370.31100000000015" as="sourcePoint" />
            <mxPoint x="800" y="430" as="targetPoint" />
          </mxGeometry>
        </mxCell>
        <mxCell id="UNj2JUYuKpYhm3q00Vne-74" value="" style="endArrow=none;html=1;rounded=0;exitX=0.402;exitY=0.277;exitDx=0;exitDy=0;exitPerimeter=0;entryX=0;entryY=0.5;entryDx=0;entryDy=0;entryPerimeter=0;" parent="1" target="UNj2JUYuKpYhm3q00Vne-12" edge="1">
          <mxGeometry width="50" height="50" relative="1" as="geometry">
            <mxPoint x="559.9859999999999" y="249.577" as="sourcePoint" />
            <mxPoint x="820" y="460" as="targetPoint" />
          </mxGeometry>
        </mxCell>
        <mxCell id="UNj2JUYuKpYhm3q00Vne-75" value="" style="endArrow=none;html=1;rounded=0;exitX=0.517;exitY=0.277;exitDx=0;exitDy=0;exitPerimeter=0;entryX=0.145;entryY=0.855;entryDx=0;entryDy=0;entryPerimeter=0;" parent="1" target="UNj2JUYuKpYhm3q00Vne-8" edge="1">
          <mxGeometry width="50" height="50" relative="1" as="geometry">
            <mxPoint x="720.181" y="249.577" as="sourcePoint" />
            <mxPoint x="820" y="250" as="targetPoint" />
          </mxGeometry>
        </mxCell>
        <mxCell id="UNj2JUYuKpYhm3q00Vne-76" value="" style="endArrow=none;html=1;rounded=0;exitX=0.517;exitY=0.277;exitDx=0;exitDy=0;exitPerimeter=0;entryX=0;entryY=0.5;entryDx=0;entryDy=0;entryPerimeter=0;" parent="1" target="UNj2JUYuKpYhm3q00Vne-13" edge="1">
          <mxGeometry width="50" height="50" relative="1" as="geometry">
            <mxPoint x="720.181" y="249.577" as="sourcePoint" />
            <mxPoint x="840" y="260" as="targetPoint" />
          </mxGeometry>
        </mxCell>
        <mxCell id="UNj2JUYuKpYhm3q00Vne-77" value="" style="endArrow=none;html=1;rounded=0;exitX=1;exitY=0.5;exitDx=0;exitDy=0;exitPerimeter=0;entryX=0.25;entryY=0;entryDx=0;entryDy=0;" parent="1" source="UNj2JUYuKpYhm3q00Vne-20" target="UNj2JUYuKpYhm3q00Vne-44" edge="1">
          <mxGeometry width="50" height="50" relative="1" as="geometry">
            <mxPoint x="780" y="390" as="sourcePoint" />
            <mxPoint x="830" y="340" as="targetPoint" />
          </mxGeometry>
        </mxCell>
        <mxCell id="UNj2JUYuKpYhm3q00Vne-78" value="" style="endArrow=none;html=1;exitX=0.682;exitY=0.277;exitDx=0;exitDy=0;exitPerimeter=0;entryX=0;entryY=0.5;entryDx=0;entryDy=0;entryPerimeter=0;" parent="1" target="UNj2JUYuKpYhm3q00Vne-14" edge="1">
          <mxGeometry width="50" height="50" relative="1" as="geometry">
            <mxPoint x="950.0259999999998" y="249.577" as="sourcePoint" />
            <mxPoint x="1040" y="230" as="targetPoint" />
          </mxGeometry>
        </mxCell>
        <mxCell id="UNj2JUYuKpYhm3q00Vne-79" value="" style="endArrow=none;html=1;rounded=0;exitX=1;exitY=0.79;exitDx=0;exitDy=0;exitPerimeter=0;entryX=0.861;entryY=0.732;entryDx=0;entryDy=0;entryPerimeter=0;" parent="1" source="UNj2JUYuKpYhm3q00Vne-20" edge="1">
          <mxGeometry width="50" height="50" relative="1" as="geometry">
            <mxPoint x="750" y="490" as="sourcePoint" />
            <mxPoint x="1199.373" y="659.5319999999999" as="targetPoint" />
          </mxGeometry>
        </mxCell>
        <mxCell id="UNj2JUYuKpYhm3q00Vne-80" value="" style="endArrow=none;html=1;exitX=1;exitY=0.5;exitDx=0;exitDy=0;exitPerimeter=0;entryX=-0.035;entryY=0.541;entryDx=0;entryDy=0;entryPerimeter=0;" parent="1" source="UNj2JUYuKpYhm3q00Vne-8" target="UNj2JUYuKpYhm3q00Vne-10" edge="1">
          <mxGeometry width="50" height="50" relative="1" as="geometry">
            <mxPoint x="920" y="100" as="sourcePoint" />
            <mxPoint x="970" y="50" as="targetPoint" />
          </mxGeometry>
        </mxCell>
        <mxCell id="UNj2JUYuKpYhm3q00Vne-81" value="" style="aspect=fixed;perimeter=ellipsePerimeter;html=1;align=center;shadow=0;dashed=0;fontColor=#4277BB;labelBackgroundColor=#ffffff;fontSize=12;spacingTop=3;image;image=img/lib/ibm/users/browser.svg;" parent="1" vertex="1">
          <mxGeometry x="920" y="74" width="60" height="60" as="geometry" />
        </mxCell>
        <mxCell id="UNj2JUYuKpYhm3q00Vne-85" value="" style="endArrow=none;html=1;rounded=0;exitX=0.5;exitY=0;exitDx=0;exitDy=0;entryX=0.5;entryY=1;entryDx=0;entryDy=0;entryPerimeter=0;" parent="1" source="UNj2JUYuKpYhm3q00Vne-4" target="UNj2JUYuKpYhm3q00Vne-5" edge="1">
          <mxGeometry width="50" height="50" relative="1" as="geometry">
            <mxPoint x="410" y="230" as="sourcePoint" />
            <mxPoint x="460" y="180" as="targetPoint" />
          </mxGeometry>
        </mxCell>
        <mxCell id="UNj2JUYuKpYhm3q00Vne-88" value="" style="endArrow=none;dashed=1;html=1;dashPattern=1 3;strokeWidth=2;rounded=0;entryX=0.25;entryY=0;entryDx=0;entryDy=0;edgeStyle=orthogonalEdgeStyle;exitX=0;exitY=0.5;exitDx=0;exitDy=0;" parent="1" source="UNj2JUYuKpYhm3q00Vne-21" target="UNj2JUYuKpYhm3q00Vne-30" edge="1">
          <mxGeometry width="50" height="50" relative="1" as="geometry">
            <mxPoint x="70" y="550" as="sourcePoint" />
            <mxPoint x="120" y="500" as="targetPoint" />
            <Array as="points">
              <mxPoint x="10" y="490" />
              <mxPoint x="10" y="100" />
              <mxPoint x="60" y="100" />
            </Array>
          </mxGeometry>
        </mxCell>
        <mxCell id="UNj2JUYuKpYhm3q00Vne-89" value="" style="outlineConnect=0;dashed=0;verticalLabelPosition=bottom;verticalAlign=top;align=center;html=1;shape=mxgraph.aws3.classic_load_balancer;fillColor=#F58534;gradientColor=none;" parent="1" vertex="1">
          <mxGeometry x="495" y="210" width="69" height="72" as="geometry" />
        </mxCell>
      </root>
    </mxGraphModel>
  </diagram>
</mxfile>
